<?xml version="1.0" encoding="UTF-8"?><svg id="Layer_2" xmlns="http://www.w3.org/2000/svg" viewBox="0 0 656.35 85.13"><defs><style>.cls-1{fill:#fff;}</style></defs><g id="Layer_1-2"><path class="cls-1" d="M64.61,26.44l-9.63,9.63-8.2-8.2c-3.79-3.79-8.76-5.69-13.74-5.69-.91,0-1.83.06-2.73.19-4.03.57-7.92,2.39-11.01,5.49-3.67,3.67-5.69,8.55-5.69,13.74s2.02,10.07,5.69,13.74c.37.37.73.71,1.12,1.04.38.32.78.64,1.18.93.11.08.23.17.35.25.53.37,1.07.71,1.64,1.02.28.15.56.3.84.44.29.14.58.28.86.4,1.59.69,3.25,1.15,4.94,1.4.03,0,.05,0,.08.01l-9.25,9.25c-.55.55-1.12,1.08-1.7,1.6-3.52-1.59-6.81-3.83-9.69-6.72-.35-.35-.69-.71-1.03-1.07-.24-.27-.48-.54-.71-.81-.18-.2-.35-.41-.52-.63-.18-.21-.35-.43-.52-.65-.17-.22-.34-.44-.5-.66-.16-.22-.32-.45-.48-.67-.16-.23-.31-.45-.46-.68-.15-.23-.3-.46-.44-.69-.1-.17-.21-.33-.31-.5-.1-.17-.2-.34-.3-.51-.11-.19-.22-.39-.33-.59-.16-.28-.31-.57-.45-.86-.17-.32-.33-.65-.48-.98-.16-.33-.3-.66-.45-.99-.08-.2-.17-.39-.24-.59-.08-.2-.16-.4-.23-.59-.08-.21-.16-.43-.24-.65-.08-.21-.15-.43-.23-.65,0-.02-.01-.03-.02-.05-.01-.04-.03-.07-.04-.1-.03-.07-.05-.15-.07-.22-.03-.1-.07-.21-.1-.32-.17-.54-.33-1.08-.46-1.62-.06-.24-.12-.49-.17-.73-.06-.23-.11-.45-.15-.68,0-.02,0-.03-.01-.05-.02-.07-.03-.14-.04-.21-.03-.16-.07-.33-.1-.49-.05-.3-.11-.61-.16-.91-.05-.3-.09-.6-.13-.91-.01-.08-.03-.17-.03-.25-.17-1.33-.25-2.68-.25-4.04,0-5.2,1.19-10.21,3.45-14.74.16-.31.31-.62.48-.92.27-.51.56-1,.86-1.49.21-.35.44-.69.66-1.04.3-.46.62-.91.94-1.35.17-.23.33-.45.5-.66.17-.22.34-.44.52-.66.17-.21.34-.42.52-.62.19-.23.4-.46.6-.69.37-.41.74-.8,1.14-1.2L27.92,0l19.24.02-4.49,4.49-4.48,4.48c6.67,1.04,13.09,4.13,18.22,9.26l8.2,8.2Z"/><path class="cls-1" d="M140.3,41.61c0,8.82-3.44,17.13-9.68,23.36-6.44,6.45-14.9,9.67-23.37,9.67s-16.92-3.22-23.36-9.67l-9-8.99,9.63-9.63,9,9c7.57,7.57,19.9,7.57,27.48,0,7.57-7.58,7.57-19.9,0-27.47-3.67-3.67-8.55-5.69-13.74-5.69s-10.07,2.02-13.74,5.69l-9,8.99-4.74,4.74-9.63,9.63-5.48,5.48-6.26,6.26-1.99,1.99c-6.44,6.45-14.91,9.67-23.36,9.67-1.72,0-3.44-.14-5.14-.4l56.57-56.57c6.17-5.88,14.23-9.1,22.77-9.1s17.13,3.44,23.37,9.68c6.24,6.24,9.68,14.54,9.68,23.37Z"/><path class="cls-1" d="M182.14,29.62c2.76-3.63,6.83-5.45,12.19-5.45,3.63,0,6.85.88,9.67,2.64,2.82,1.76,5.02,4.24,6.62,7.44,1.6,3.2,2.4,6.88,2.4,11.05s-.8,7.86-2.4,11.05c-1.6,3.2-3.81,5.68-6.62,7.44-2.82,1.76-6.04,2.64-9.67,2.64-5.36,0-9.43-1.81-12.19-5.45v4.63h-12.19V3.86h12.19v25.76ZM198.15,52.95c1.79-1.95,2.68-4.5,2.68-7.64s-.89-5.76-2.68-7.68c-1.79-1.92-4.14-2.89-7.07-2.89s-5.28.96-7.07,2.89c-1.79,1.92-2.68,4.48-2.68,7.68s.89,5.69,2.68,7.64c1.79,1.95,4.14,2.93,7.07,2.93s5.28-.98,7.07-2.93Z"/><rect class="cls-1" x="220.66" y="24.99" width="12.19" height="40.63"/><path class="cls-1" d="M276.21,62.05c-3.66,2.93-8.25,4.39-13.78,4.39-4.34,0-8.17-.88-11.5-2.64-3.33-1.76-5.91-4.24-7.72-7.44-1.82-3.2-2.72-6.88-2.72-11.05s.91-7.86,2.72-11.05c1.81-3.2,4.39-5.68,7.72-7.44,3.33-1.76,7.16-2.64,11.5-2.64,5.53,0,10.12,1.46,13.78,4.39,3.66,2.93,5.92,6.88,6.79,11.87h-12.27c-.65-1.79-1.71-3.18-3.17-4.19-1.46-1-3.17-1.5-5.12-1.5-2.93,0-5.28.96-7.07,2.89-1.79,1.92-2.68,4.48-2.68,7.68s.89,5.69,2.68,7.64c1.79,1.95,4.14,2.93,7.07,2.93,1.95,0,3.66-.5,5.12-1.5,1.46-1,2.52-2.4,3.17-4.19h12.27c-.87,4.99-3.13,8.94-6.79,11.87Z"/><path class="cls-1" d="M319.08,60.59c-2.6,3.9-6.64,5.85-12.11,5.85-3.69,0-6.98-.88-9.87-2.64-2.9-1.76-5.16-4.24-6.79-7.44-1.63-3.2-2.44-6.88-2.44-11.05s.81-7.86,2.44-11.05c1.63-3.2,3.89-5.68,6.79-7.44,2.9-1.76,6.19-2.64,9.87-2.64,5.2.38,9.13,2.28,11.78,5.69v-4.88h12.19v40.63h-11.38l-.49-5.04ZM316.88,52.95c1.79-1.95,2.68-4.5,2.68-7.64s-.89-5.76-2.68-7.68c-1.79-1.92-4.14-2.89-7.07-2.89s-5.28.96-7.07,2.89c-1.79,1.92-2.68,4.48-2.68,7.68s.89,5.69,2.68,7.64c1.79,1.95,4.14,2.93,7.07,2.93s5.28-.98,7.07-2.93Z"/><path class="cls-1" d="M340.69,24.99h12.19v8.86c2.49-5.9,6.83-8.86,13-8.86h4.06v10.57h-4.06c-4.61,0-7.92,1-9.96,3.01-2.03,2.01-3.05,5.34-3.05,10v17.07h-12.19V24.99Z"/><path class="cls-1" d="M402.78,60.59c-2.6,3.9-6.64,5.85-12.11,5.85-3.69,0-6.98-.88-9.87-2.64-2.9-1.76-5.16-4.24-6.79-7.44-1.63-3.2-2.44-6.88-2.44-11.05s.81-7.86,2.44-11.05c1.63-3.2,3.89-5.68,6.79-7.44,2.9-1.76,6.19-2.64,9.87-2.64,5.2.38,9.13,2.28,11.78,5.69v-4.88h12.19v40.63h-11.38l-.49-5.04ZM400.59,52.95c1.79-1.95,2.68-4.5,2.68-7.64s-.89-5.76-2.68-7.68c-1.79-1.92-4.14-2.89-7.07-2.89s-5.28.96-7.07,2.89c-1.79,1.92-2.68,4.48-2.68,7.68s.89,5.69,2.68,7.64c1.79,1.95,4.14,2.93,7.07,2.93s5.28-.98,7.07-2.93Z"/><path class="cls-1" d="M436.59,29.62c2.76-3.63,6.83-5.45,12.19-5.45,3.63,0,6.85.88,9.67,2.64,2.82,1.76,5.02,4.24,6.62,7.44,1.6,3.2,2.4,6.88,2.4,11.05s-.8,7.86-2.4,11.05c-1.6,3.2-3.81,5.68-6.62,7.44-2.82,1.76-6.04,2.64-9.67,2.64-5.36,0-9.43-1.81-12.19-5.45v24.14h-12.19V24.99h12.19v4.63ZM452.6,52.95c1.79-1.95,2.68-4.5,2.68-7.64s-.89-5.76-2.68-7.68c-1.79-1.92-4.14-2.89-7.07-2.89s-5.28.96-7.07,2.89c-1.79,1.92-2.68,4.48-2.68,7.68s.89,5.69,2.68,7.64c1.79,1.95,4.14,2.93,7.07,2.93s5.28-.98,7.07-2.93Z"/><rect class="cls-1" x="475.11" y="24.99" width="12.19" height="40.63"/><path class="cls-1" d="M497.38,24.99h12.19v7.07c1.41-2.55,3.29-4.5,5.65-5.85,2.36-1.35,5.08-2.03,8.17-2.03,4.17,0,7.52,1.49,10.04,4.47,2.52,2.98,3.78,6.91,3.78,11.78v25.19h-12.19v-22.76c0-2.44-.66-4.4-1.99-5.89-1.33-1.49-3.1-2.23-5.32-2.23-2.44,0-4.4.75-5.89,2.23-1.49,1.49-2.23,3.45-2.23,5.89v22.76h-12.19V24.99Z"/><path class="cls-1" d="M549.48,62.98c-1.9-1.76-2.84-4.67-2.84-8.74v-18.69l.15-21.94h12.04v11.38h11.38v10.57h-11.38v16.25c0,1.19.24,2.03.73,2.52s1.33.73,2.52.73h8.13v10.57h-11.38c-4.34,0-7.45-.88-9.35-2.64Z"/><path class="cls-1" d="M605.48,60.59c-2.6,3.9-6.64,5.85-12.11,5.85-3.69,0-6.98-.88-9.87-2.64-2.9-1.76-5.16-4.24-6.79-7.44-1.63-3.2-2.44-6.88-2.44-11.05s.81-7.86,2.44-11.05c1.63-3.2,3.89-5.68,6.79-7.44,2.9-1.76,6.19-2.64,9.87-2.64,5.2.38,9.13,2.28,11.78,5.69v-4.88h12.19v40.63h-11.38l-.49-5.04ZM603.28,52.95c1.79-1.95,2.68-4.5,2.68-7.64s-.89-5.76-2.68-7.68c-1.79-1.92-4.14-2.89-7.07-2.89s-5.28.96-7.07,2.89c-1.79,1.92-2.68,4.48-2.68,7.68s.89,5.69,2.68,7.64c1.79,1.95,4.14,2.93,7.07,2.93s5.28-.98,7.07-2.93Z"/><path class="cls-1" d="M627.09,24.99h12.19v8.86c2.49-5.9,6.83-8.86,13-8.86h4.06v10.57h-4.06c-4.61,0-7.92,1-9.96,3.01-2.03,2.01-3.05,5.34-3.05,10v17.07h-12.19V24.99Z"/></g></svg>