<svg width="371" height="49" viewBox="0 0 371 49" fill="none" xmlns="http://www.w3.org/2000/svg">
<g clip-path="url(#clip0_82_277)">
<path d="M36.4299 15.408L31.0001 20.8378L26.3766 16.2143C24.2396 14.0774 21.4373 13.0061 18.6293 13.0061C18.1162 13.0061 17.5975 13.0399 17.0901 13.1132C14.8178 13.4346 12.6244 14.4608 10.8821 16.2087C8.81283 18.278 7.67386 21.0295 7.67386 23.9559C7.67386 26.8822 8.81283 29.6338 10.8821 31.7031C11.0908 31.9117 11.2937 32.1034 11.5136 32.2895C11.7279 32.4699 11.9534 32.6504 12.179 32.8139C12.241 32.859 12.3087 32.9097 12.3763 32.9548C12.6752 33.1635 12.9796 33.3552 13.301 33.53C13.4589 33.6145 13.6168 33.6991 13.7747 33.778C13.9382 33.857 14.1017 33.9359 14.2596 34.0036C15.1561 34.3926 16.092 34.652 17.0449 34.793C17.0619 34.793 17.0731 34.793 17.0901 34.7986L11.8745 40.0142C11.5644 40.3243 11.243 40.6231 10.916 40.9163C8.93124 40.0198 7.07619 38.7568 5.45232 37.1273C5.25498 36.9299 5.06327 36.7269 4.87156 36.524C4.73624 36.3717 4.60092 36.2195 4.47123 36.0673C4.36974 35.9545 4.27389 35.8361 4.17803 35.712C4.07654 35.5936 3.98069 35.4696 3.88484 35.3455C3.78898 35.2215 3.69313 35.0974 3.60291 34.9734C3.5127 34.8493 3.42248 34.7197 3.33227 34.5956C3.24205 34.4659 3.15748 34.3419 3.0729 34.2122C2.98832 34.0825 2.90375 33.9528 2.82481 33.8232C2.76843 33.7273 2.7064 33.6371 2.65002 33.5412C2.59363 33.4454 2.53725 33.3495 2.48087 33.2537C2.41884 33.1465 2.35682 33.0338 2.2948 32.921C2.20458 32.7631 2.12001 32.5996 2.04107 32.4361C1.94521 32.2557 1.855 32.0696 1.77042 31.8835C1.68021 31.6975 1.60127 31.5114 1.51669 31.3253C1.47159 31.2126 1.42084 31.1054 1.38137 30.9927C1.33626 30.8799 1.29116 30.7671 1.25169 30.66C1.20658 30.5416 1.16147 30.4175 1.11636 30.2935C1.07126 30.1751 1.03179 30.051 0.98668 29.927C0.98668 29.9157 0.981041 29.9101 0.975403 29.8988C0.969765 29.8762 0.958488 29.8593 0.952849 29.8424C0.935934 29.8029 0.924657 29.7578 0.91338 29.7184C0.896465 29.662 0.873911 29.6 0.856996 29.5379C0.761142 29.2335 0.670927 28.929 0.597628 28.6245C0.563797 28.4892 0.529967 28.3482 0.501774 28.2129C0.467944 28.0832 0.439752 27.9592 0.417198 27.8295C0.417198 27.8182 0.417198 27.8126 0.411559 27.8013C0.400283 27.7618 0.394644 27.7224 0.389006 27.6829C0.37209 27.5927 0.349537 27.4968 0.332621 27.4066C0.304429 27.2375 0.270599 27.0627 0.242406 26.8935C0.214214 26.7244 0.19166 26.5552 0.169107 26.3804C0.163468 26.3353 0.152191 26.2846 0.152191 26.2395C0.056338 25.4895 0.0112305 24.7284 0.0112305 23.9615C0.0112305 21.0295 0.682204 18.2047 1.95649 15.6505C2.04671 15.4757 2.13128 15.3009 2.22714 15.1317C2.37937 14.8442 2.54289 14.5679 2.71204 14.2916C2.83045 14.0943 2.96013 13.9026 3.08418 13.7052C3.25333 13.4458 3.43376 13.1921 3.61419 12.944C3.71004 12.8143 3.80026 12.6903 3.89611 12.5719C3.99197 12.4478 4.08782 12.3238 4.18931 12.1998C4.28516 12.0813 4.38102 11.9629 4.48251 11.8502C4.58964 11.7205 4.70805 11.5908 4.82082 11.4611C5.02944 11.2299 5.23806 11.01 5.4636 10.7845L15.7425 0.5L26.5908 0.511277L24.0592 3.04293L21.5331 5.56895C25.294 6.15535 28.9139 7.89763 31.8064 10.7901L36.4299 15.4137V15.408Z" fill="#FCFCFC"/>
<path d="M79.1069 23.9615C79.1069 28.9346 77.1673 33.6202 73.6489 37.1329C70.0178 40.7697 65.2477 42.5853 60.4719 42.5853C55.6961 42.5853 50.9317 40.7697 47.3005 37.1329L42.2259 32.064L47.6557 26.6342L52.7303 31.7088C56.9986 35.977 63.9508 35.977 68.2247 31.7088C72.493 27.4348 72.493 20.4883 68.2247 16.22C66.1554 14.1507 63.4039 13.0117 60.4775 13.0117C57.5512 13.0117 54.7996 14.1507 52.7303 16.22L47.6557 21.2889L44.9831 23.9615L39.5533 29.3914L36.4634 32.4812L32.9338 36.0109L31.8117 37.1329C28.1806 40.7697 23.4048 42.5853 18.6403 42.5853C17.6705 42.5853 16.7007 42.5064 15.7422 42.3598L47.6388 10.4631C51.1177 7.14773 55.6623 5.33215 60.4775 5.33215C65.2928 5.33215 70.1362 7.27178 73.6546 10.7902C77.1729 14.3085 79.1126 18.9884 79.1126 23.9672L79.1069 23.9615Z" fill="#FCFCFC"/>
<path d="M102.698 17.201C104.255 15.1543 106.55 14.1281 109.572 14.1281C111.618 14.1281 113.434 14.6243 115.024 15.6166C116.614 16.609 117.855 18.0073 118.757 19.8116C119.659 21.6159 120.11 23.6909 120.11 26.0421C120.11 28.3933 119.659 30.4739 118.757 32.2726C117.855 34.0769 116.608 35.4752 115.024 36.4676C113.434 37.4599 111.618 37.9561 109.572 37.9561C106.55 37.9561 104.255 36.9356 102.698 34.8832V37.4938H95.8252V2.67642H102.698V17.201ZM111.726 30.3555C112.735 29.256 113.237 27.8182 113.237 26.0477C113.237 24.2773 112.735 22.8 111.726 21.7174C110.716 20.6348 109.391 20.0879 107.739 20.0879C106.087 20.0879 104.762 20.6292 103.753 21.7174C102.744 22.8 102.242 24.2434 102.242 26.0477C102.242 27.852 102.744 29.256 103.753 30.3555C104.762 31.455 106.087 32.0076 107.739 32.0076C109.391 32.0076 110.716 31.455 111.726 30.3555Z" fill="#FCFCFC"/>
<path d="M131.291 14.5905H124.417V37.4994H131.291V14.5905Z" fill="#FCFCFC"/>
<path d="M155.739 35.4865C153.675 37.1385 151.087 37.9618 147.969 37.9618C145.522 37.9618 143.363 37.4656 141.485 36.4732C139.608 35.4808 138.153 34.0825 137.132 32.2782C136.106 30.4739 135.599 28.399 135.599 26.0477C135.599 23.6965 136.112 21.6159 137.132 19.8173C138.153 18.013 139.608 16.6146 141.485 15.6223C143.363 14.6299 145.522 14.1337 147.969 14.1337C151.087 14.1337 153.675 14.9569 155.739 16.609C157.803 18.2611 159.077 20.4882 159.568 23.3018H152.649C152.283 22.2925 151.685 21.5088 150.862 20.9393C150.039 20.3755 149.074 20.0936 147.975 20.0936C146.323 20.0936 144.998 20.6348 143.989 21.7231C142.979 22.8056 142.478 24.2491 142.478 26.0534C142.478 27.8577 142.979 29.2617 143.989 30.3611C144.998 31.4606 146.323 32.0132 147.975 32.0132C149.074 32.0132 150.039 31.7313 150.862 31.1674C151.685 30.6036 152.283 29.8142 152.649 28.8049H159.568C159.077 31.6185 157.803 33.8457 155.739 35.4978V35.4865Z" fill="#FCFCFC"/>
<path d="M179.911 34.6633C178.445 36.8623 176.167 37.9618 173.083 37.9618C171.002 37.9618 169.147 37.4656 167.518 36.4732C165.883 35.4808 164.608 34.0825 163.689 32.2782C162.77 30.4739 162.313 28.399 162.313 26.0477C162.313 23.6965 162.77 21.6159 163.689 19.8173C164.608 18.013 165.883 16.6146 167.518 15.6223C169.153 14.6299 171.008 14.1337 173.083 14.1337C176.015 14.348 178.231 15.4193 179.725 17.342V14.5904H186.598V37.4994H180.182L179.905 34.6576L179.911 34.6633ZM178.671 30.3555C179.68 29.256 180.182 27.8182 180.182 26.0477C180.182 24.2773 179.68 22.8 178.671 21.7174C177.661 20.6348 176.336 20.0879 174.684 20.0879C173.032 20.0879 171.707 20.6292 170.698 21.7174C169.689 22.8 169.187 24.2434 169.187 26.0477C169.187 27.852 169.689 29.256 170.698 30.3555C171.707 31.455 173.032 32.0076 174.684 32.0076C176.336 32.0076 177.661 31.455 178.671 30.3555Z" fill="#FCFCFC"/>
<path d="M192.096 14.5905H198.969V19.5861C200.373 16.2594 202.82 14.5905 206.299 14.5905H208.588V20.5503H206.299C203.7 20.5503 201.834 21.1141 200.683 22.2474C199.539 23.3808 198.964 25.2584 198.964 27.8859V37.5107H192.09V14.5905H192.096Z" fill="#FCFCFC"/>
<path d="M227.105 34.6633C225.639 36.8623 223.361 37.9618 220.277 37.9618C218.196 37.9618 216.341 37.4656 214.712 36.4732C213.076 35.4808 211.802 34.0825 210.883 32.2782C209.964 30.4739 209.507 28.399 209.507 26.0477C209.507 23.6965 209.964 21.6159 210.883 19.8173C211.802 18.013 213.076 16.6146 214.712 15.6223C216.347 14.6299 218.202 14.1337 220.277 14.1337C223.209 14.348 225.425 15.4193 226.919 17.342V14.5904H233.792V37.4994H227.376L227.099 34.6576L227.105 34.6633ZM225.87 30.3555C226.879 29.256 227.381 27.8182 227.381 26.0477C227.381 24.2773 226.879 22.8 225.87 21.7174C224.861 20.6348 223.536 20.0879 221.884 20.0879C220.232 20.0879 218.907 20.6292 217.897 21.7174C216.888 22.8 216.386 24.2434 216.386 26.0477C216.386 27.852 216.888 29.256 217.897 30.3555C218.907 31.455 220.232 32.0076 221.884 32.0076C223.536 32.0076 224.861 31.455 225.87 30.3555Z" fill="#FCFCFC"/>
<path d="M246.168 17.2011C247.724 15.1543 250.019 14.1281 253.041 14.1281C255.088 14.1281 256.904 14.6243 258.494 15.6167C260.084 16.609 261.324 18.0074 262.226 19.8117C263.129 21.616 263.58 23.6909 263.58 26.0421C263.58 28.3934 263.129 30.4739 262.226 32.2726C261.324 34.0769 260.078 35.4752 258.494 36.4676C256.904 37.46 255.088 37.9561 253.041 37.9561C250.019 37.9561 247.724 36.9356 246.168 34.8832V48.4944H239.295V14.5905H246.168V17.2011ZM255.195 30.3555C256.205 29.256 256.706 27.8182 256.706 26.0478C256.706 24.2773 256.205 22.8 255.195 21.7174C254.186 20.6349 252.861 20.0879 251.209 20.0879C249.557 20.0879 248.232 20.6292 247.223 21.7174C246.213 22.8 245.711 24.2435 245.711 26.0478C245.711 27.8521 246.213 29.256 247.223 30.3555C248.232 31.455 249.557 32.0076 251.209 32.0076C252.861 32.0076 254.186 31.455 255.195 30.3555Z" fill="#FCFCFC"/>
<path d="M274.761 14.5905H267.888V37.4994H274.761V14.5905Z" fill="#FCFCFC"/>
<path d="M280.444 14.5904H287.318V18.5768C288.113 17.139 289.173 16.0395 290.503 15.2783C291.834 14.5171 293.368 14.1337 295.11 14.1337C297.461 14.1337 299.35 14.9739 300.771 16.6541C302.192 18.3344 302.902 20.5503 302.902 23.2962V37.4994H296.029V24.6663C296.029 23.2905 295.657 22.1854 294.907 21.3453C294.157 20.5052 293.159 20.0879 291.907 20.0879C290.532 20.0879 289.426 20.5108 288.586 21.3453C287.746 22.1854 287.329 23.2905 287.329 24.6663V37.4994H280.456V14.5904H280.444Z" fill="#FCFCFC"/>
<path d="M309.821 36.0109C308.75 35.0185 308.22 33.3777 308.22 31.0829V20.5446L308.304 8.17392H315.093V14.5905H321.51V20.5503H315.093V29.7127C315.093 30.3837 315.228 30.8573 315.505 31.1336C315.781 31.4099 316.254 31.5452 316.925 31.5452H321.51V37.5051H315.093C312.646 37.5051 310.892 37.0089 309.821 36.0165V36.0109Z" fill="#FCFCFC"/>
<path d="M341.396 34.6633C339.93 36.8623 337.652 37.9618 334.568 37.9618C332.487 37.9618 330.632 37.4656 329.003 36.4732C327.367 35.4808 326.093 34.0825 325.174 32.2782C324.255 30.4739 323.798 28.399 323.798 26.0477C323.798 23.6965 324.255 21.6159 325.174 19.8173C326.093 18.013 327.367 16.6146 329.003 15.6223C330.638 14.6299 332.493 14.1337 334.568 14.1337C337.5 14.348 339.716 15.4193 341.21 17.342V14.5904H348.083V37.4994H341.667L341.39 34.6576L341.396 34.6633ZM340.155 30.3555C341.165 29.256 341.667 27.8182 341.667 26.0477C341.667 24.2773 341.165 22.8 340.155 21.7174C339.146 20.6348 337.821 20.0879 336.169 20.0879C334.517 20.0879 333.192 20.6292 332.183 21.7174C331.173 22.8 330.672 24.2434 330.672 26.0477C330.672 27.852 331.173 29.256 332.183 30.3555C333.192 31.455 334.517 32.0076 336.169 32.0076C337.821 32.0076 339.146 31.455 340.155 30.3555Z" fill="#FCFCFC"/>
<path d="M353.581 14.5905H360.454V19.5861C361.858 16.2594 364.305 14.5905 367.784 14.5905H370.073V20.5503H367.784C365.185 20.5503 363.318 21.1141 362.168 22.2474C361.024 23.3808 360.448 25.2584 360.448 27.8859V37.5107H353.575V14.5905H353.581Z" fill="#FCFCFC"/>
</g>
<defs>
<clipPath id="clip0_82_277">
<rect width="370.079" height="48" fill="white" transform="translate(0 0.5)"/>
</clipPath>
</defs>
</svg>
