<svg width="299" height="48" viewBox="0 0 299 48" fill="none" xmlns="http://www.w3.org/2000/svg">
<g clip-path="url(#clip0_82_382)">
<path d="M47.2403 38.4C55.1932 38.4 61.6403 31.9529 61.6403 24C61.6403 16.0471 55.1932 9.6 47.2403 9.6C39.7764 9.6 33.6389 15.2785 32.9123 22.551C29.9703 21.2203 26.7918 20.4251 23.537 20.2158C25.3516 8.75893 35.2731 0 47.2403 0C60.4952 0 71.2403 10.7452 71.2403 24C71.2403 36.7714 61.2646 47.2128 48.6802 47.9575V48H32.8636V45.9054C32.8636 43.1844 31.7415 40.5385 29.6848 38.5603C27.6222 36.5765 24.7892 35.4328 21.8002 35.4328C18.8112 35.4328 15.9782 36.5765 13.9156 38.5603C11.859 40.5385 10.7368 43.1844 10.7368 45.9054V48H0.200195V45.8542C0.200195 40.2445 2.52824 34.9087 6.60029 31.0078C10.5421 27.2316 15.8058 25.0922 21.2855 24.966C21.4569 24.962 21.6285 24.96 21.8002 24.96C21.9332 24.96 22.066 24.9612 22.1988 24.9636C27.7202 25.0621 33.0305 27.2048 37.0001 31.0078C39.1991 33.1144 40.8896 35.6394 41.9793 38.4H47.2403Z" fill="white"/>
<path d="M26.2129 41.9094C27.3831 42.927 28.0405 44.3073 28.0405 45.7464V48H15.5605V45.7464C15.5605 44.3073 16.218 42.927 17.3881 41.9094C18.5584 40.8917 20.1456 40.32 21.8005 40.32C23.4555 40.32 25.0427 40.8917 26.2129 41.9094Z" fill="white"/>
<path d="M52.7383 21.6435C51.0031 21.6435 49.5965 20.237 49.5965 18.5018V17.7163C49.5965 16.415 48.5415 15.36 47.2401 15.36C45.9387 15.36 44.8838 16.4149 44.8838 17.7163V18.5018C44.8838 20.237 43.4771 21.6435 41.7419 21.6435H40.9564C39.6551 21.6435 38.6001 22.6986 38.6001 24C38.6001 25.3014 39.6551 26.3563 40.9564 26.3563H41.7419C43.4771 26.3563 44.8838 27.7629 44.8838 29.4981V30.2837C44.8838 31.5851 45.9387 32.64 47.2401 32.64C48.5415 32.64 49.5965 31.5851 49.5965 30.2837V29.4981C49.5965 27.7629 51.0031 26.3563 52.7383 26.3563H53.5238C54.8252 26.3563 55.8801 25.3014 55.8801 24C55.8801 22.6986 54.8252 21.6435 53.5238 21.6435H52.7383Z" fill="white"/>
<path d="M13.6403 3.84005C13.6403 5.96078 15.3596 7.67999 17.4803 7.67999H18.4402C20.0308 7.67999 21.3202 8.96941 21.3202 10.56C21.3202 12.1506 20.0308 13.44 18.4402 13.44H17.4803C15.3596 13.44 13.6403 15.1592 13.6403 17.2799V18.24C13.6403 19.8306 12.3509 21.12 10.7603 21.12C9.16975 21.12 7.88033 19.8306 7.88033 18.24V17.28C7.88033 15.1592 6.1611 13.44 4.04033 13.44H3.0802C1.48962 13.44 0.200195 12.1506 0.200195 10.56C0.200195 8.96941 1.48962 7.67999 3.0802 7.67999H4.04034C6.1611 7.67999 7.88033 5.96077 7.88033 3.84V2.88C7.88033 1.28942 9.16975 0 10.7603 0C12.3509 0 13.6403 1.28942 13.6403 2.88V3.84005Z" fill="white"/>
<path d="M287.334 15.8865C294.545 15.8865 298.025 20.924 298.025 26.759V37.7153H290.478V28.0603C290.478 25.4156 289.515 23.2328 286.748 23.2328C283.98 23.2328 283.058 25.4156 283.058 28.0603V37.7153H275.511V28.0603C275.511 25.4156 274.588 23.2328 271.821 23.2328C269.054 23.2328 268.09 25.4156 268.09 28.0603V37.7153H260.542V26.759C260.542 20.924 264.022 15.8865 271.234 15.8865C275.175 15.8865 278.026 17.4398 279.326 20.0005C280.709 17.4398 283.728 15.8865 287.334 15.8865Z" fill="white"/>
<path d="M246.98 30.9987C249.413 30.9987 250.46 28.7739 250.46 26.1292V16.7261H258.007V27.0527C258.007 33.2236 254.401 38.345 246.98 38.345C239.56 38.345 235.954 33.2236 235.954 27.0527V16.7261H243.5V26.1292C243.5 28.7739 244.549 30.9987 246.98 30.9987Z" fill="white"/>
<path d="M224.856 38.387C220.118 38.387 217.058 36.7498 215.255 33.5594L220.705 30.4949C221.46 31.8383 222.593 32.51 224.479 32.51C226.031 32.51 226.744 31.9642 226.744 31.2926C226.744 28.7319 215.675 31.3346 215.675 23.1908C215.675 19.2448 219.029 16.0545 224.731 16.0545C229.72 16.0545 232.446 18.4892 233.662 20.84L228.211 23.9464C227.749 22.687 226.324 21.9314 224.898 21.9314C223.808 21.9314 223.222 22.3931 223.222 23.0229C223.222 25.6255 234.29 23.2328 234.29 31.1247C234.29 35.5324 229.972 38.387 224.856 38.387Z" fill="white"/>
<path d="M198.49 47.3704H190.943V27.1788C190.943 20.756 195.764 16.0964 202.472 16.0964C209.012 16.0964 214.002 21.0919 214.002 27.1788C214.002 33.8953 209.558 38.345 202.891 38.345C201.341 38.345 199.789 37.8833 198.49 37.1696V47.3704ZM202.472 31.2506C204.862 31.2506 206.455 29.4036 206.455 27.2208C206.455 24.9959 204.862 23.1908 202.472 23.1908C200.082 23.1908 198.49 24.9959 198.49 27.2208C198.49 29.4036 200.082 31.2506 202.472 31.2506Z" fill="white"/>
<path d="M183.383 14.5013C180.908 14.5013 178.854 12.4444 178.854 9.96768C178.854 7.49096 180.908 5.43402 183.383 5.43402C185.856 5.43402 187.91 7.49096 187.91 9.96768C187.91 12.4444 185.856 14.5013 183.383 14.5013ZM179.609 16.7262H187.156V37.7153H179.609V16.7262Z" fill="white"/>
<path d="M165.129 38.345C158.588 38.345 153.599 33.3075 153.599 27.1787C153.599 21.0919 158.588 16.0545 165.129 16.0545C171.669 16.0545 176.659 21.0919 176.659 27.1787C176.659 33.3075 171.669 38.345 165.129 38.345ZM165.129 31.2506C167.519 31.2506 169.112 29.4035 169.112 27.2207C169.112 24.9958 167.519 23.1488 165.129 23.1488C162.739 23.1488 161.145 24.9958 161.145 27.2207C161.145 29.4035 162.739 31.2506 165.129 31.2506Z" fill="white"/>
<path d="M139.349 48C134.149 48 130.376 45.6912 128.447 41.5774L134.694 38.219C135.365 39.6463 136.624 41.1156 139.223 41.1156C141.948 41.1156 143.75 39.3944 143.96 36.372C142.955 37.2535 141.361 37.9253 138.971 37.9253C133.144 37.9253 128.447 33.4336 128.447 27.1368C128.447 21.0499 133.436 16.0964 139.978 16.0964C146.686 16.0964 151.507 20.756 151.507 27.1788V35.4905C151.507 43.0465 146.267 48 139.349 48ZM139.852 30.8309C142.116 30.8309 143.834 29.2777 143.834 26.9689C143.834 24.702 142.116 23.1908 139.852 23.1908C137.629 23.1908 135.869 24.702 135.869 26.9689C135.869 29.2777 137.629 30.8309 139.852 30.8309Z" fill="white"/>
<path d="M115.645 38.345C109.104 38.345 104.115 33.3075 104.115 27.1787C104.115 21.0919 109.104 16.0545 115.645 16.0545C122.185 16.0545 127.175 21.0919 127.175 27.1787C127.175 33.3075 122.185 38.345 115.645 38.345ZM115.645 31.2506C118.035 31.2506 119.628 29.4035 119.628 27.2207C119.628 24.9958 118.035 23.1488 115.645 23.1488C113.255 23.1488 111.662 24.9958 111.662 27.2207C111.662 29.4035 113.255 31.2506 115.645 31.2506Z" fill="white"/>
<path d="M90.3718 9.37994V30.579H102.866V37.7153H89.3236C84.5439 37.7153 82.6152 35.1966 82.6152 31.2086V9.37994H90.3718Z" fill="white"/>
</g>
<defs>
<clipPath id="clip0_82_382">
<rect width="298.8" height="48" fill="white" transform="translate(0.200195)"/>
</clipPath>
</defs>
</svg>
