<svg width="307" height="48" viewBox="0 0 307 48" fill="none" xmlns="http://www.w3.org/2000/svg">
<g clip-path="url(#clip0_82_369)">
<path d="M43.4786 1.84665C44.536 0.746681 45.972 0.128723 47.4673 0.128723C54.1948 0.128723 60.5348 0.128727 66.7784 0.128739C79.3359 0.128765 85.6241 15.9233 76.7447 25.1606L57.403 45.2819C56.5151 46.2057 54.9968 45.5514 54.9968 44.245V26.5229L57.232 24.1976C59.0079 22.3501 57.7502 19.1912 55.2386 19.1912H26.8062L43.4786 1.84665Z" fill="white"/>
<path d="M38.3241 43.8677C37.2668 44.9677 35.8309 45.5856 34.3355 45.5856C27.608 45.5856 21.268 45.5856 15.0245 45.5856C2.46688 45.5855 -3.82133 29.7911 5.05818 20.5536L24.3999 0.432422C25.2878 -0.491323 26.8061 0.162911 26.8061 1.46928L26.8062 19.1912L24.5709 21.5167C22.795 23.3642 24.0527 26.5231 26.5642 26.5231L54.9968 26.523L38.3241 43.8677Z" fill="white"/>
<path d="M193.074 15.36V38.2112H199.785V15.36H193.074Z" fill="white"/>
<path d="M193.541 11.5585C194.334 12.3513 195.304 12.7478 196.451 12.7478C197.597 12.7478 198.561 12.3513 199.339 11.5585C200.132 10.7656 200.529 9.80285 200.529 8.6702C200.529 7.50923 200.132 6.53939 199.339 5.7607C198.561 4.96785 197.597 4.57141 196.451 4.57141C195.304 4.57141 194.334 4.96785 193.541 5.7607C192.748 6.53939 192.352 7.50923 192.352 8.6702C192.352 9.80285 192.748 10.7656 193.541 11.5585Z" fill="white"/>
<path fill-rule="evenodd" clip-rule="evenodd" d="M203.571 47.1309V15.3601H209.942V17.6324H210.026C210.427 17.237 210.859 16.876 211.323 16.5493C212.823 15.5016 214.55 14.9778 216.505 14.9778C218.218 14.9778 219.853 15.4237 221.411 16.3157C222.982 17.2076 224.257 18.5315 225.234 20.287C226.21 22.0427 226.684 24.2301 226.657 26.8493C226.67 28.8315 226.394 30.5588 225.828 32.0313C225.261 33.4896 224.497 34.7001 223.534 35.6628C222.572 36.6256 221.495 37.3476 220.306 37.829C219.117 38.3104 217.914 38.551 216.695 38.551C214.77 38.551 213.043 38.0131 211.514 36.9371C211.129 36.6626 210.764 36.3653 210.42 36.0451H210.282V47.1309H203.571ZM215.124 32.9444C216.115 32.9302 216.986 32.6684 217.737 32.1587C218.486 31.649 219.075 30.9269 219.499 29.9925C219.924 29.058 220.13 27.9678 220.115 26.7219C220.13 25.4477 219.917 24.3576 219.478 23.4514C219.053 22.5312 218.452 21.8302 217.673 21.3489C216.894 20.8534 216.002 20.6126 214.997 20.6268C214.049 20.6126 213.198 20.8464 212.449 21.3277C211.698 21.8091 211.103 22.5099 210.665 23.4301C210.226 24.3363 210.006 25.4336 210.006 26.7219C210.006 27.9678 210.226 29.058 210.665 29.9925C211.117 30.9269 211.726 31.649 212.491 32.1587C213.255 32.6684 214.133 32.9302 215.124 32.9444Z" fill="white"/>
<path d="M233.119 37.8501C234.364 38.3173 235.667 38.5509 237.026 38.5509C238.584 38.5509 240.007 38.2466 241.295 37.6378C242.597 37.029 243.637 36.1795 244.417 35.0893C245.21 33.985 245.605 32.7178 245.605 31.2879C245.605 30.1552 245.365 29.1995 244.884 28.4209C244.417 27.6421 243.821 27.005 243.1 26.5095C242.392 26.0139 241.663 25.6245 240.913 25.3415C240.162 25.0441 239.504 24.8176 238.937 24.6618C238.201 24.4495 237.493 24.23 236.813 24.0035C236.135 23.777 235.575 23.508 235.136 23.1964C234.697 22.885 234.477 22.4744 234.477 21.9647C234.477 21.4551 234.697 21.0303 235.136 20.6905C235.575 20.3507 236.127 20.1808 236.793 20.1808C237.585 20.1808 238.236 20.3931 238.746 20.8179C239.271 21.2426 239.666 21.6816 239.936 22.1346L245.096 19.9047C244.445 18.4322 243.34 17.25 241.784 16.358C240.24 15.4661 238.498 15.0201 236.559 15.0201C235.002 15.0201 233.613 15.3104 232.396 15.8908C231.193 16.4713 230.237 17.2784 229.529 18.3119C228.835 19.3313 228.489 20.5135 228.489 21.8585C228.489 23.1328 228.786 24.2159 229.38 25.1079C229.976 25.9997 230.747 26.736 231.696 27.3165C232.658 27.8828 233.677 28.3288 234.754 28.6545C235.221 28.7819 235.731 28.9234 236.283 29.0792C236.849 29.2349 237.387 29.4189 237.897 29.6314C238.407 29.8437 238.824 30.0986 239.149 30.3959C239.475 30.6932 239.639 31.0472 239.639 31.4578C239.639 31.7834 239.525 32.0877 239.298 32.3709C239.087 32.6541 238.788 32.8877 238.407 33.0717C238.024 33.2417 237.578 33.3266 237.068 33.3266C236.106 33.3266 235.271 33.0293 234.562 32.4347C233.855 31.84 233.324 31.21 232.97 30.5445L227.703 32.8594C228.184 34.0063 228.899 35.0114 229.848 35.8751C230.796 36.7245 231.887 37.3829 233.119 37.8501Z" fill="white"/>
<path d="M272.886 38.2112V15.36H279.278V18.2695H279.395C279.895 17.5743 280.458 16.9867 281.084 16.5067C282.358 15.5156 283.866 15.0201 285.607 15.0201C287.051 15.0201 288.276 15.374 289.282 16.082C290.057 16.6097 290.689 17.3176 291.178 18.2057H291.298C292.021 17.2834 292.9 16.5612 293.932 16.0395C295.277 15.36 296.742 15.0201 298.329 15.0201C299.843 15.0201 301.09 15.2891 302.066 15.8272C303.043 16.3509 303.807 17.0448 304.359 17.9084C304.911 18.7579 305.301 19.6923 305.527 20.7117C305.755 21.7169 305.868 22.6938 305.868 23.6425V38.2112H299.114V24.4707C299.114 23.2248 298.852 22.2691 298.329 21.6036C297.819 20.9241 297.068 20.5843 296.077 20.5843C295.426 20.5843 294.845 20.733 294.335 21.0303C293.841 21.3135 293.444 21.7452 293.147 22.3257C292.863 22.9063 292.722 23.6212 292.722 24.4707V38.2112H286.011V24.4707C286.011 23.2248 285.749 22.2691 285.225 21.6036C284.701 20.9241 283.943 20.5843 282.953 20.5843C281.99 20.5843 281.19 20.917 280.553 21.5825C279.916 22.2337 279.597 23.2106 279.597 24.5132V38.2112H272.886Z" fill="white"/>
<path d="M256.464 38.551C254.892 38.551 253.462 38.2183 252.174 37.5529C250.885 36.8732 249.859 35.8822 249.094 34.5796C248.345 33.263 247.969 31.6418 247.969 29.7163V15.36H254.68V28.8243C254.68 30.141 255.02 31.1463 255.699 31.84C256.393 32.5196 257.236 32.8594 258.227 32.8594C258.963 32.8594 259.608 32.6966 260.16 32.371C260.725 32.0454 261.164 31.5852 261.476 30.9905C261.802 30.3817 261.964 29.6596 261.964 28.8243V15.36H268.675V30.2048C268.675 31.0259 268.796 31.6206 269.036 31.9887C269.277 32.3568 269.765 32.6754 270.501 32.9443L268.123 38.551C266.438 38.1121 265.206 37.5387 264.428 36.8308C264.036 36.4742 263.739 36.0635 263.537 35.5991H263.366C262.773 36.1952 262.115 36.7262 261.392 37.1919C259.961 38.0979 258.318 38.551 256.464 38.551Z" fill="white"/>
<path fill-rule="evenodd" clip-rule="evenodd" d="M178.543 38.5509C176.347 38.5509 174.344 38.0484 172.532 37.0432C170.734 36.0379 169.297 34.6504 168.22 32.8806C167.159 31.1108 166.628 29.0721 166.628 26.7643C166.628 24.4565 167.159 22.4178 168.22 20.648C169.297 18.8783 170.734 17.4978 172.532 16.5067C174.344 15.5156 176.347 15.0201 178.543 15.0201C180.779 15.0201 182.796 15.5156 184.595 16.5067C186.393 17.4978 187.816 18.8783 188.864 20.648C189.926 22.4178 190.456 24.4565 190.456 26.7643C190.456 29.0721 189.926 31.1108 188.864 32.8806C187.816 34.6504 186.386 36.0379 184.574 37.0432C182.776 38.0484 180.766 38.5509 178.543 38.5509ZM178.543 32.8169C179.59 32.8169 180.531 32.5621 181.367 32.0524C182.202 31.5427 182.86 30.8348 183.342 29.9286C183.823 29.0226 184.064 27.9677 184.064 26.7643C184.064 25.6034 183.831 24.5698 183.363 23.6636C182.896 22.7576 182.251 22.0497 181.431 21.54C180.609 21.0161 179.66 20.7541 178.585 20.7541C177.523 20.7541 176.567 21.009 175.718 21.5187C174.882 22.0143 174.224 22.7151 173.743 23.6212C173.262 24.5273 173.02 25.5751 173.02 26.7643C173.02 27.9677 173.262 29.0226 173.743 29.9286C174.238 30.8348 174.904 31.5427 175.739 32.0524C176.575 32.5621 177.508 32.8169 178.543 32.8169Z" fill="white"/>
<path fill-rule="evenodd" clip-rule="evenodd" d="M146.765 46.7698C148.35 47.237 150.092 47.4706 151.989 47.4706C153.76 47.4706 155.38 47.2441 156.853 46.7911C158.325 46.3522 159.6 45.6867 160.675 44.7947C161.765 43.9028 162.608 42.7985 163.203 41.4817C163.797 40.165 164.094 38.636 164.094 36.8945V15.3387H158V17.5686H157.873C157.467 17.1803 157.028 16.8264 156.555 16.5067C155.083 15.5015 153.363 14.999 151.395 14.999C149.696 14.999 148.06 15.4307 146.489 16.2944C144.917 17.1439 143.629 18.4182 142.624 20.1171C141.633 21.8019 141.137 23.9185 141.137 26.4671C141.137 28.3784 141.427 30.0419 142.008 31.4578C142.588 32.8736 143.36 34.0558 144.323 35.0044C145.3 35.9389 146.382 36.6396 147.572 37.1068C148.762 37.56 149.957 37.7865 151.161 37.7865C153.101 37.7865 154.828 37.2555 156.344 36.1937C156.822 35.8533 157.27 35.4781 157.685 35.0681H157.787V37.2768C157.787 38.367 157.434 39.2448 156.725 39.9102C156.018 40.5898 155.161 41.0854 154.156 41.3968C153.15 41.7083 152.18 41.864 151.246 41.864C150.156 41.864 149.08 41.6871 148.018 41.3331C146.97 40.9932 146.05 40.5827 145.258 40.1014L143.049 45.3682C143.955 45.8496 145.194 46.3168 146.765 46.7698ZM155.515 31.564C154.737 32.0737 153.837 32.3284 152.818 32.3284C151.812 32.3284 150.928 32.0737 150.163 31.564C149.398 31.0401 148.797 30.3251 148.358 29.419C147.92 28.4987 147.699 27.444 147.699 26.2546C147.699 25.0654 147.92 24.0318 148.358 23.154C148.811 22.2762 149.434 21.6036 150.227 21.1364C151.02 20.6551 151.918 20.4144 152.924 20.4144C153.929 20.4144 154.814 20.648 155.579 21.1152C156.344 21.5825 156.945 22.255 157.384 23.1328C157.822 23.9964 158.042 25.037 158.042 26.2546C158.042 27.458 157.816 28.52 157.363 29.4402C156.909 30.3464 156.293 31.0543 155.515 31.564Z" fill="white"/>
<path fill-rule="evenodd" clip-rule="evenodd" d="M127.518 38.5509C125.324 38.5509 123.321 38.0484 121.508 37.0432C119.71 36.0379 118.273 34.6504 117.197 32.8806C116.135 31.1108 115.604 29.0721 115.604 26.7643C115.604 24.4565 116.135 22.4178 117.197 20.648C118.273 18.8783 119.71 17.4978 121.508 16.5067C123.321 15.5156 125.324 15.0201 127.518 15.0201C129.755 15.0201 131.773 15.5156 133.571 16.5067C135.369 17.4978 136.791 18.8783 137.839 20.648C138.901 22.4178 139.433 24.4565 139.433 26.7643C139.433 29.0721 138.901 31.1108 137.839 32.8806C136.791 34.6504 135.362 36.0379 133.549 37.0432C131.751 38.0484 129.741 38.5509 127.518 38.5509ZM127.518 32.8169C128.566 32.8169 129.507 32.5621 130.342 32.0524C131.178 31.5427 131.836 30.8348 132.318 29.9286C132.799 29.0226 133.039 27.9677 133.039 26.7643C133.039 25.6034 132.806 24.5698 132.339 23.6636C131.871 22.7576 131.228 22.0497 130.406 21.54C129.586 21.0161 128.636 20.7541 127.561 20.7541C126.499 20.7541 125.543 21.009 124.693 21.5187C123.858 22.0143 123.199 22.7151 122.718 23.6212C122.237 24.5273 121.996 25.5751 121.996 26.7643C121.996 27.9677 122.237 29.0226 122.718 29.9286C123.214 30.8348 123.879 31.5427 124.715 32.0524C125.55 32.5621 126.484 32.8169 127.518 32.8169Z" fill="white"/>
<path d="M97.4614 6.90753V38.2112H115.705V32.0099H104.427V6.90753H97.4614Z" fill="white"/>
</g>
<defs>
<clipPath id="clip0_82_369">
<rect width="305.143" height="48" fill="white" transform="translate(0.901367)"/>
</clipPath>
</defs>
</svg>
