<svg width="268" height="48" viewBox="0 0 268 48" fill="none" xmlns="http://www.w3.org/2000/svg">
<g clip-path="url(#clip0_82_357)">
<path fill-rule="evenodd" clip-rule="evenodd" d="M0.955566 16.7442V34.6046H6.53696C7.12331 34.6046 7.70393 34.7202 8.24572 34.9446C8.78737 35.1689 9.27969 35.4978 9.69421 35.9125C10.1089 36.3271 10.4378 36.8193 10.6622 37.3611C10.8865 37.9028 11.0021 38.4834 11.0021 39.0698V44.6512H24.3974L41.1416 27.907V10.0465H35.5602C34.9738 10.0465 34.3933 9.93103 33.8514 9.70664C33.3098 9.48224 32.8175 9.15333 32.4029 8.73871C31.9883 8.32409 31.6594 7.83184 31.4349 7.29012C31.2106 6.7484 31.0951 6.16778 31.0951 5.5814V0H17.6998L0.955566 16.7442ZM19.9323 33.4884H12.1184V21.2093L22.1649 11.1628H29.9788V23.4419L19.9323 33.4884Z" fill="white"/>
<path d="M258.334 13.6697C261.154 13.6697 263.421 14.5404 265.134 16.2818C266.876 17.9957 267.746 20.4005 267.746 23.4962V36.9715H261.942V24.2841C261.942 22.4873 261.485 21.1191 260.573 20.1793C259.661 19.2118 258.418 18.7282 256.842 18.7282C255.266 18.7282 254.008 19.2118 253.068 20.1793C252.156 21.1191 251.701 22.4873 251.701 24.2841V36.9715H245.896V24.2841C245.896 22.4873 245.44 21.1191 244.528 20.1793C243.616 19.2118 242.371 18.7282 240.796 18.7282C239.193 18.7282 237.922 19.2118 236.982 20.1793C236.07 21.1191 235.613 22.4873 235.613 24.2841V36.9715H229.809V14.0014H235.613V16.7794C236.36 15.812 237.313 15.0518 238.474 14.499C239.663 13.9461 240.961 13.6697 242.371 13.6697C244.168 13.6697 245.771 14.0568 247.181 14.8307C248.591 15.577 249.683 16.655 250.456 18.0648C251.203 16.7379 252.282 15.6737 253.69 14.8721C255.128 14.0705 256.676 13.6697 258.334 13.6697Z" fill="white"/>
<path d="M225.532 14.0014V36.9715H219.686V34.0691C218.94 35.0642 217.958 35.852 216.742 36.4325C215.554 36.9853 214.254 37.2618 212.844 37.2618C211.048 37.2618 209.459 36.8886 208.077 36.1422C206.695 35.3683 205.603 34.2488 204.802 32.7838C204.027 31.2911 203.641 29.5221 203.641 27.4767V14.0014H209.445V26.6474C209.445 28.4717 209.901 29.8815 210.813 30.8765C211.726 31.844 212.969 32.3277 214.544 32.3277C216.149 32.3277 217.405 31.844 218.317 30.8765C219.231 29.8815 219.686 28.4717 219.686 26.6474V14.0014H225.532Z" fill="white"/>
<path d="M191.496 37.3447C189.616 37.3447 187.929 37.0129 186.437 36.3495C184.944 35.6586 183.755 34.7325 182.871 33.5716C182.014 32.4106 181.544 31.1253 181.461 29.7156H187.307C187.418 30.6001 187.847 31.3326 188.593 31.9131C189.367 32.4936 190.32 32.7838 191.453 32.7838C192.559 32.7838 193.417 32.5627 194.024 32.1204C194.66 31.6781 194.978 31.1115 194.978 30.4205C194.978 29.6742 194.591 29.1213 193.818 28.762C193.071 28.3751 191.868 27.9604 190.21 27.5181C188.496 27.1035 187.086 26.6751 185.981 26.2328C184.903 25.7905 183.963 25.1133 183.162 24.2012C182.387 23.289 182.001 22.0589 182.001 20.511C182.001 19.2395 182.36 18.0786 183.079 17.0282C183.825 15.9778 184.875 15.1486 186.229 14.5405C187.612 13.9323 189.228 13.6282 191.08 13.6282C193.818 13.6282 196.001 14.3193 197.632 15.7014C199.263 17.0559 200.161 18.8939 200.327 21.2159H194.771C194.688 20.3037 194.301 19.585 193.61 19.0598C192.947 18.507 192.048 18.2305 190.915 18.2305C189.865 18.2305 189.049 18.4241 188.468 18.8111C187.916 19.198 187.639 19.7371 187.639 20.428C187.639 21.2021 188.026 21.7964 188.8 22.211C189.575 22.598 190.777 22.9987 192.408 23.4133C194.065 23.828 195.434 24.2564 196.512 24.6987C197.591 25.141 198.516 25.832 199.291 26.7718C200.092 27.684 200.506 28.9002 200.534 30.4205C200.534 31.7472 200.161 32.9358 199.415 33.9863C198.696 35.0366 197.645 35.8659 196.263 36.474C194.909 37.0545 193.32 37.3447 191.496 37.3447Z" fill="white"/>
<path d="M161.86 17.3184C162.607 16.268 163.63 15.3973 164.929 14.7063C166.255 13.9877 167.762 13.6282 169.448 13.6282C171.41 13.6282 173.179 14.112 174.756 15.0795C176.359 16.0469 177.615 17.4289 178.529 19.2257C179.469 20.9948 179.937 23.054 179.937 25.4035C179.937 27.7531 179.469 29.84 178.529 31.6643C177.615 33.4611 176.359 34.857 174.756 35.852C173.179 36.8471 171.41 37.3447 169.448 37.3447C167.762 37.3447 166.27 36.9991 164.97 36.3081C163.699 35.617 162.662 34.7463 161.86 33.696V47.9175H156.056V14.0014H161.86V17.3184ZM174.009 25.4035C174.009 24.0215 173.719 22.8328 173.138 21.8378C172.586 20.8151 171.839 20.0411 170.899 19.5159C169.987 18.9907 168.992 18.7282 167.914 18.7282C166.863 18.7282 165.869 19.0046 164.929 19.5574C164.016 20.0826 163.27 20.8565 162.69 21.8792C162.137 22.9019 161.86 24.1044 161.86 25.4865C161.86 26.8685 162.137 28.071 162.69 29.0937C163.27 30.1165 164.016 30.9042 164.929 31.457C165.869 31.9822 166.863 32.2449 167.914 32.2449C168.992 32.2449 169.987 31.9684 170.899 31.4156C171.839 30.8627 172.586 30.0749 173.138 29.0522C173.719 28.0295 174.009 26.8133 174.009 25.4035Z" fill="white"/>
<path d="M148.911 11.2649C147.888 11.2649 147.032 10.947 146.341 10.3113C145.677 9.64786 145.345 8.83244 145.345 7.86498C145.345 6.89754 145.677 6.09594 146.341 5.46018C147.032 4.79679 147.888 4.46509 148.911 4.46509C149.934 4.46509 150.777 4.79679 151.44 5.46018C152.131 6.09594 152.477 6.89754 152.477 7.86498C152.477 8.83244 152.131 9.64786 151.44 10.3113C150.777 10.947 149.934 11.2649 148.911 11.2649ZM151.772 14.0013V36.9715H145.967V14.0013H151.772Z" fill="white"/>
<path d="M131.177 37.3447C128.966 37.3447 126.977 36.8609 125.208 35.8935C123.438 34.8984 122.043 33.5025 121.019 31.7058C120.025 29.9092 119.527 27.836 119.527 25.4865C119.527 23.1369 120.038 21.0639 121.061 19.2671C122.111 17.4705 123.535 16.0884 125.332 15.1209C127.129 14.1259 129.132 13.6282 131.344 13.6282C133.555 13.6282 135.559 14.1259 137.356 15.1209C139.152 16.0884 140.562 17.4705 141.585 19.2671C142.635 21.0639 143.161 23.1369 143.161 25.4865C143.161 27.836 142.622 29.9092 141.543 31.7058C140.493 33.5025 139.056 34.8984 137.231 35.8935C135.435 36.8609 133.417 37.3447 131.177 37.3447ZM131.177 32.2863C132.228 32.2863 133.209 32.0375 134.122 31.5399C135.062 31.0147 135.808 30.2408 136.36 29.2181C136.914 28.1953 137.19 26.9515 137.19 25.4865C137.19 23.3028 136.609 21.6305 135.448 20.4696C134.315 19.281 132.919 18.6867 131.261 18.6867C129.602 18.6867 128.207 19.281 127.073 20.4696C125.968 21.6305 125.415 23.3028 125.415 25.4865C125.415 27.6701 125.953 29.3563 127.032 30.5449C128.138 31.7058 129.52 32.2863 131.177 32.2863Z" fill="white"/>
<path d="M106.189 37.3447C103.978 37.3447 101.987 36.8609 100.218 35.8935C98.4493 34.8984 97.0534 33.5025 96.0307 31.7058C95.0356 29.9092 94.5381 27.836 94.5381 25.4865C94.5381 23.1369 95.0495 21.0639 96.0722 19.2671C97.1225 17.4705 98.5461 16.0884 100.343 15.1209C102.14 14.1259 104.143 13.6282 106.355 13.6282C108.566 13.6282 110.57 14.1259 112.367 15.1209C114.163 16.0884 115.573 17.4705 116.596 19.2671C117.646 21.0639 118.172 23.1369 118.172 25.4865C118.172 27.836 117.633 29.9092 116.554 31.7058C115.504 33.5025 114.067 34.8984 112.242 35.8935C110.446 36.8609 108.428 37.3447 106.189 37.3447ZM106.189 32.2863C107.239 32.2863 108.221 32.0375 109.133 31.5399C110.073 31.0147 110.819 30.2408 111.372 29.2181C111.925 28.1953 112.201 26.9515 112.201 25.4865C112.201 23.3028 111.621 21.6305 110.46 20.4696C109.326 19.281 107.93 18.6867 106.272 18.6867C104.613 18.6867 103.217 19.281 102.084 20.4696C100.979 21.6305 100.426 23.3028 100.426 25.4865C100.426 27.6701 100.965 29.3563 102.043 30.5449C103.148 31.7058 104.53 32.2863 106.189 32.2863Z" fill="white"/>
<path d="M81.2001 37.3447C78.9888 37.3447 76.9987 36.8609 75.2296 35.8935C73.4605 34.8984 72.0646 33.5025 71.0419 31.7058C70.0468 29.9092 69.5493 27.836 69.5493 25.4865C69.5493 23.1369 70.0607 21.0639 71.0834 19.2671C72.1337 17.4705 73.5573 16.0884 75.354 15.1209C77.1506 14.1259 79.1547 13.6282 81.366 13.6282C83.5773 13.6282 85.5813 14.1259 87.378 15.1209C89.1747 16.0884 90.5844 17.4705 91.6071 19.2671C92.6575 21.0639 93.1827 23.1369 93.1827 25.4865C93.1827 27.836 92.6437 29.9092 91.5657 31.7058C90.5153 33.5025 89.0779 34.8984 87.2536 35.8935C85.457 36.8609 83.4391 37.3447 81.2001 37.3447ZM81.2001 32.2863C82.2506 32.2863 83.2318 32.0375 84.144 31.5399C85.0838 31.0147 85.8301 30.2408 86.3829 29.2181C86.9357 28.1953 87.2122 26.9515 87.2122 25.4865C87.2122 23.3028 86.6317 21.6305 85.4707 20.4696C84.3374 19.281 82.9415 18.6867 81.2831 18.6867C79.6246 18.6867 78.2287 19.281 77.0954 20.4696C75.9897 21.6305 75.4369 23.3028 75.4369 25.4865C75.4369 27.6701 75.976 29.3563 77.0539 30.5449C78.1596 31.7058 79.5417 32.2863 81.2001 32.2863Z" fill="white"/>
<path d="M59.2256 32.3692H68.7619V36.9714H53.4209V8.03082H59.2256V32.3692Z" fill="white"/>
<path d="M96.0698 40.0569C97.5402 44.4296 101.673 47.5793 106.541 47.5793H107.147C113.247 47.5793 118.192 42.6343 118.192 36.5344V35.9103H112.204V36.5344C112.204 39.3273 109.94 41.5914 107.147 41.5914H106.541C105.118 41.5914 103.832 41.0033 102.913 40.0569H96.0698Z" fill="white"/>
</g>
<defs>
<clipPath id="clip0_82_357">
<rect width="266.791" height="48" fill="white" transform="translate(0.955566)"/>
</clipPath>
</defs>
</svg>
