<svg width="251" height="48" viewBox="0 0 251 48" fill="none" xmlns="http://www.w3.org/2000/svg">
<g clip-path="url(#clip0_82_347)">
<path d="M116.226 4.8019C115.839 7.55299 117.625 9.6038 120.408 9.6038C123.192 9.6038 125.556 7.55299 125.944 4.8019C126.331 2.05081 124.545 0 121.761 0C118.977 0 116.613 2.05081 116.226 4.8019Z" fill="white"/>
<path d="M116.296 11.8547L113.908 28.8087L121.541 28.5168L123.887 11.8547H116.296Z" fill="white"/>
<path fill-rule="evenodd" clip-rule="evenodd" d="M96.2477 37.215C102.269 37.215 107.387 34.0151 109.946 29.1681L113.835 29.3268L112.816 36.5645H120.408L121.383 29.6349L125.408 29.7992L122.969 47.119H130.561L132.427 33.8638C133.686 36.0646 136.055 37.215 139.041 37.215C143.078 37.215 147.818 35.1347 150.652 30.8294L153.559 30.948C154.055 34.6884 157.547 37.215 163.087 37.215C169.514 37.215 174.245 33.8138 174.963 28.7117C175.788 22.8594 170.405 21.909 166.881 21.4089L166.574 21.362C164.444 21.0378 162.818 20.7905 163.02 19.358C163.162 18.3576 164.054 17.4072 165.926 17.4072C167.446 17.4072 168.366 18.0575 168.407 19.208H175.795C176.27 14.7562 172.925 11.2048 166.699 11.2048C160.474 11.2048 155.982 14.7062 155.277 19.7081C154.44 25.6605 159.989 26.5108 163.359 27.0111L163.545 27.0393L163.805 27.0783L163.807 27.0786C165.869 27.3878 167.424 27.6209 167.207 29.162C167.059 30.2123 166.187 31.0126 163.859 31.0126C161.784 31.0126 160.914 30.3624 161.046 29.0619L107.317 29.0608L110.055 28.9562C110.793 27.5036 111.303 25.908 111.542 24.2099C112.598 16.7069 107.806 11.2048 99.9105 11.2048C99.7881 11.2048 99.6661 11.2061 99.5445 11.2087L99.5687 11.1926L75.6352 11.1926C75.2922 11.1903 74.9667 11.1903 74.6616 11.1926H75.6352C81.7812 11.2339 93.4939 12.0119 91.9871 13.2794C88.0519 15.5412 85.2828 19.4776 84.6165 24.2099C83.5599 31.7129 88.3523 37.215 96.2477 37.215ZM97.2337 30.2123C100.675 30.2123 103.349 27.7613 103.849 24.2099C104.349 20.6585 102.366 18.2075 98.9243 18.2075C95.4827 18.2075 92.8095 20.6585 92.3093 24.2099C91.8093 27.7613 93.7923 30.2123 97.2337 30.2123Z" fill="white"/>
<path d="M145.326 24.2099C145.14 25.5375 144.649 26.7112 143.928 27.6606L152.326 27.3394C152.615 26.4571 152.836 25.5143 152.977 24.51C154.097 16.5569 149.284 11.2048 141.337 11.2048C133.696 11.2048 127.33 16.1567 126.16 24.46L125.611 28.3612L134.409 28.0247C133.809 27.0183 133.576 25.7127 133.787 24.2099C134.287 20.6585 136.961 18.2075 140.403 18.2075C143.844 18.2075 145.827 20.6585 145.326 24.2099Z" fill="white"/>
<path d="M204.548 32.7672L205.971 22.6593C207.092 14.7061 212.241 11.2048 218.314 11.2048C221.856 11.2048 224.652 12.5553 226.158 15.1564C228.398 12.5553 231.524 11.2048 235.116 11.2048C241.191 11.2048 245.354 14.7061 244.234 22.6593L242.276 36.5649H234.683L236.642 22.6593C237.107 19.3579 235.649 18.2075 233.372 18.2075C231.144 18.2075 229.364 19.3579 228.898 22.6593L226.94 36.5649H219.348L221.307 22.6593C221.771 19.3579 220.314 18.2075 218.087 18.2075C215.81 18.2075 214.028 19.3579 213.563 22.6593L211.605 36.5649H207.056L207.057 36.5677H196.42C200.834 36.1213 204.225 34.9157 204.54 32.7565L204.548 32.7672Z" fill="white"/>
<path d="M188.351 37.2148C180.961 37.2148 176.593 33.0131 177.769 24.6598L179.099 15.2227C179.311 12.785 177.388 12.4805 173.145 11.8697H179.571L179.573 11.8547H187.165L185.362 24.6598C184.812 28.5613 186.503 30.2119 189.337 30.2119C192.172 30.2119 194.327 28.5613 194.877 24.6598L196.68 11.8547H204.271L202.468 24.6598C201.299 32.963 195.741 37.2148 188.351 37.2148Z" fill="white"/>
<path d="M59.0607 33.6402C58.5241 33.0543 58.0609 32.4061 57.6771 31.7029L52.2568 31.4083C49.4532 34.9767 45.0492 37.215 40.0133 37.215C32.1179 37.215 27.3255 31.7129 28.3821 24.2099C29.4387 16.7069 35.7807 11.2048 43.6761 11.2048C51.5715 11.2048 56.3639 16.7069 55.3073 24.2099C55.0657 25.9249 54.5481 27.5355 53.7989 28.9996L44.0341 29.497C45.9354 28.5223 47.2751 26.6194 47.6143 24.2099C48.1145 20.6585 46.1315 18.2075 42.6899 18.2075C39.2484 18.2075 36.5751 20.6585 36.075 24.2099C35.7006 26.8684 36.7177 28.9103 38.6964 29.7689L30.1285 30.2055H69.3035V30.2099C72.6546 30.1228 75.2405 27.6967 75.7315 24.2099C76.2316 20.6585 74.2486 18.2075 70.807 18.2075C67.3655 18.2075 64.6923 20.6585 64.1921 24.2099C63.9513 25.9204 64.2864 27.3756 65.0831 28.4247L56.6265 28.8555C56.3179 27.43 56.2656 25.8689 56.4991 24.2099C57.5557 16.7069 63.8977 11.2048 71.7931 11.2048C79.6885 11.2048 84.481 16.7069 83.4244 24.2099C82.4038 31.4574 76.4515 36.8381 68.9314 37.1961C70.7025 38.191 73.2749 38.9956 75.1657 39.5868C75.7966 39.7842 76.3516 39.9577 76.7755 40.1067C78.4927 40.5303 79.59 42.1116 79.3245 43.9977C79.0132 46.2081 76.9477 48 74.7112 48H62.562C58.5907 48 55.6848 45.1754 55.5184 41.4479L40.5336 39.9971H55.5897L55.5899 39.9953H68.5455C65.5831 38.8631 62.4529 36.598 60.4404 34.8888C59.9387 34.513 59.4785 34.0962 59.0623 33.642L59.0607 33.6402Z" fill="white"/>
<path d="M0 3.8517L6.20136 4.83666L1.73347 36.5646H25.5714L26.628 29.0616H10.9891L14.5391 3.85162L0 3.8517Z" fill="white"/>
<path d="M250.8 9.45231C250.8 11.0467 249.505 12.3393 247.907 12.3393C246.309 12.3393 245.015 11.0467 245.015 9.45231C245.015 7.85789 246.309 6.56537 247.907 6.56537C249.505 6.56537 250.8 7.85789 250.8 9.45231Z" fill="white"/>
</g>
<defs>
<clipPath id="clip0_82_347">
<rect width="250.8" height="48" fill="white"/>
</clipPath>
</defs>
</svg>
